<?xml version="1.0" standalone="no"?>
<!DOCTYPE svg PUBLIC "-//W3C//DTD SVG 20010904//EN"
 "http://www.w3.org/TR/2001/REC-SVG-20010904/DTD/svg10.dtd">
<svg version="1.0" xmlns="http://www.w3.org/2000/svg"
 width="150.000000pt" height="150.000000pt" viewBox="0 0 150.000000 150.000000"
 preserveAspectRatio="xMidYMid meet">
<metadata>
Created by potrace 1.11, written by Peter Selinger 2001-2013
</metadata>
<g transform="translate(0.000000,150.000000) scale(0.100000,-0.100000)"
fill="#000000" stroke="none">
<path d="M642 1480 c-11 -11 -24 -35 -27 -54 -6 -30 -12 -35 -51 -45 -49 -13
-110 -67 -116 -103 -2 -13 1 -42 8 -65 7 -24 8 -43 3 -43 -19 0 -59 -88 -59
-130 0 -41 34 -120 52 -120 4 0 8 -8 8 -19 0 -10 6 -24 14 -30 17 -14 27 -59
15 -67 -18 -11 -9 -61 15 -83 18 -17 26 -41 35 -99 17 -106 18 -116 31 -212
14 -102 19 -112 68 -137 29 -14 38 -24 37 -41 -3 -35 -17 -44 -49 -32 -53 20
-56 17 -56 -70 0 -89 0 -90 70 -65 24 8 44 14 46 13 1 -2 6 -18 11 -37 12 -45
24 -48 44 -9 21 44 35 45 60 4 26 -45 36 -45 45 -1 3 19 9 37 13 40 4 2 29 -2
56 -10 27 -8 50 -13 53 -10 7 7 7 153 1 160 -3 3 -20 0 -38 -6 -24 -8 -35 -8
-46 1 -24 20 -18 40 25 79 39 36 39 36 46 131 3 52 8 103 9 112 2 10 7 53 10
95 4 55 11 84 24 98 36 39 41 59 24 94 -13 26 -14 37 -5 52 7 10 12 24 12 30
0 6 13 27 30 45 57 65 64 155 15 208 -19 21 -23 34 -20 70 4 54 -23 101 -72
125 -18 9 -33 22 -33 29 0 26 -30 71 -52 78 -13 4 -44 6 -69 5 -33 -1 -52 4
-71 19 -34 26 -88 26 -116 0z m113 -27 c11 -7 45 -13 76 -13 41 0 60 -5 71
-17 46 -53 -40 -143 -135 -143 -43 0 -97 36 -119 79 -14 29 -15 39 -4 65 21
52 61 63 111 29z m-137 -117 c44 -96 223 -115 302 -31 28 30 35 31 59 8 52
-51 51 -110 -5 -167 -52 -54 -95 -69 -199 -70 -125 -1 -177 15 -242 79 -67 64
-72 103 -20 152 61 57 88 65 105 29z m-90 -224 c36 -33 131 -62 225 -67 90 -6
228 40 260 85 15 21 15 21 36 -6 26 -33 27 -89 2 -129 -60 -98 -162 -146 -310
-147 -155 0 -274 59 -302 151 -13 44 -8 71 21 119 22 36 25 35 68 -6z m472
-230 c0 -11 -48 -37 -104 -56 -69 -23 -203 -31 -268 -16 -58 14 -123 43 -134
61 -3 6 4 4 17 -4 98 -64 354 -63 454 2 36 23 35 23 35 13z m-35 -52 c-3 -5
-12 -10 -18 -10 -7 0 -6 4 3 10 19 12 23 12 15 0z m-39 -18 c-3 -5 -31 -14
-62 -21 -40 -9 -53 -16 -43 -22 11 -7 10 -9 -6 -10 l-20 0 20 -9 c17 -7 16 -9
-10 -10 l-30 -2 30 -8 30 -8 -33 -1 c-20 -1 -31 -6 -30 -13 4 -16 -98 -14
-117 2 -8 6 -26 15 -42 20 l-28 8 32 1 c25 1 31 5 30 21 -1 15 -7 18 -27 15
-22 -5 -22 -4 -5 4 19 9 19 10 1 10 -11 1 -17 3 -15 5 3 3 30 1 60 -3 66 -9
231 8 248 25 8 8 22 4 17 -4z m87 -31 c-14 -54 -131 -112 -220 -110 l-48 2 60
7 c103 13 166 43 191 91 17 33 24 37 17 10z m-485 -40 c16 -16 49 -35 73 -42
24 -7 48 -16 53 -20 13 -11 -63 10 -94 26 -25 13 -79 65 -68 65 4 0 20 -13 36
-29z m392 19 c8 -5 11 -10 5 -10 -5 0 -17 5 -25 10 -8 5 -10 10 -5 10 6 0 17
-5 25 -10z m-21 -40 c-9 -5 -34 -13 -55 -16 -22 -3 -42 -8 -46 -11 -5 -2 -8 1
-8 6 0 6 10 11 23 12 31 1 58 6 65 13 3 3 12 6 21 6 14 -1 14 -2 0 -10z m-305
-61 c-8 -14 -44 -10 -44 5 0 9 8 12 25 8 14 -2 22 -8 19 -13z m134 14 c-10 -2
-28 -2 -40 0 -13 2 -5 4 17 4 22 1 32 -1 23 -4z m227 -4 c8 -11 -25 -40 -37
-33 -5 3 -8 0 -8 -7 0 -8 -4 -8 -15 1 -21 18 -19 32 5 25 13 -4 22 -1 26 9 7
18 20 21 29 5z m-315 -17 c0 -5 -7 -9 -15 -9 -8 0 -15 4 -15 9 0 4 7 8 15 8 8
0 15 -4 15 -8z m60 -17 c7 -9 10 -18 6 -22 -3 -3 -6 -1 -6 6 0 6 -10 16 -22
21 -16 6 -18 9 -7 9 9 1 22 -6 29 -14z m61 -13 c9 2 13 -4 11 -14 -2 -10 2
-18 8 -18 6 0 8 -5 5 -11 -5 -7 -13 -5 -25 6 -10 9 -24 14 -29 10 -7 -4 -11 6
-11 27 1 30 2 31 14 15 8 -10 20 -16 27 -15z m36 22 c-3 -3 -12 -4 -19 -1 -8
3 -5 6 6 6 11 1 17 -2 13 -5z m61 -15 c3 -12 2 -12 -6 0 -12 16 -32 6 -33 -17
0 -11 -2 -12 -6 -4 -6 15 16 44 30 39 6 -2 12 -10 15 -18z m-266 1 c6 0 8 -6
5 -14 -3 -7 0 -20 6 -27 10 -11 9 -11 -5 0 -9 7 -21 10 -26 7 -6 -3 -12 6 -15
20 -3 19 -1 24 10 20 8 -3 19 -6 25 -6z m42 -39 c-9 -10 -26 18 -18 30 5 9 9
8 14 -7 4 -10 6 -21 4 -23z m312 20 c-10 -11 -16 -24 -13 -28 3 -5 -3 -9 -14
-9 -12 0 -18 5 -14 14 3 7 5 18 5 23 0 6 4 8 8 5 4 -2 14 -1 22 5 23 14 25 11
6 -10z m-51 0 c3 -5 1 -12 -5 -16 -5 -3 -10 1 -10 9 0 18 6 21 15 7z m-155
-45 c8 -3 17 -5 20 -6 3 -1 -4 -5 -15 -9 -12 -5 -25 -4 -33 2 -9 7 -17 6 -29
-6 -19 -19 -10 -47 18 -54 11 -3 18 -11 15 -19 -3 -7 2 -18 11 -26 14 -11 16
-10 11 9 -5 20 -3 22 26 16 17 -3 35 -10 40 -14 14 -12 29 -11 21 1 -3 6 2 10
13 10 14 0 19 6 18 23 -1 12 3 25 9 30 6 4 5 10 -4 16 -7 5 -10 14 -6 20 10
16 31 -3 37 -33 5 -26 -32 -69 -73 -84 -32 -13 -106 -8 -141 8 -33 15 -38 34
-7 25 16 -5 20 -3 17 6 -3 8 -16 14 -29 14 -20 0 -24 -5 -24 -27 1 -16 -5 -28
-11 -28 -7 0 -21 -3 -31 -6 -17 -5 -17 -5 0 6 12 7 16 18 12 31 -4 10 -2 19 4
19 6 0 8 6 5 14 -3 8 -1 17 5 21 6 3 11 1 11 -4 0 -6 8 -11 18 -11 14 1 12 5
-10 25 l-27 24 27 10 c25 9 62 8 102 -3z m98 -11 c0 -30 3 -29 -39 -10 -30 14
-31 15 -6 10 15 -3 27 -2 26 2 -2 15 1 23 10 23 5 0 9 -11 9 -25z m108 -50
c-3 -25 -13 -56 -21 -69 -15 -23 -15 -27 0 -50 10 -14 13 -26 7 -26 -6 0 -14
5 -17 11 -4 6 -14 8 -22 4 -12 -4 -13 -3 -5 8 7 8 9 17 5 21 -4 4 -1 11 7 16
8 6 11 10 5 10 -31 0 -41 -33 -24 -76 10 -27 12 -28 19 -9 7 17 9 17 9 3 1
-10 6 -18 12 -18 8 0 8 -4 -1 -15 -11 -13 -14 -13 -27 0 -21 21 -32 19 -43 -9
-12 -32 -30 -43 -22 -14 3 13 11 27 19 31 15 9 18 37 4 37 -5 0 -11 -9 -14
-20 -3 -13 -13 -20 -29 -20 -22 1 -22 1 -4 15 10 8 32 42 50 76 30 61 66 95
51 50 -3 -11 -2 -21 3 -21 16 0 21 27 11 62 -12 44 -12 45 7 22 15 -19 15 -18
11 4 -3 12 -1 22 4 22 6 0 8 -19 5 -45z m-139 19 c8 -23 -21 -42 -53 -36 -30
5 -43 30 -23 43 24 15 69 10 76 -7z m-211 -14 c0 -24 -20 -21 -24 3 -2 9 3 17
10 17 8 0 14 -9 14 -20z m114 10 c0 -5 -4 -10 -10 -10 -5 0 -10 5 -10 10 0 6
5 10 10 10 6 0 10 -4 10 -10z m129 -14 c9 -11 7 -15 -9 -19 -16 -4 -19 -2 -11
7 6 7 8 16 4 19 -3 4 -4 7 -1 7 3 0 11 -6 17 -14z m-169 -98 c0 -6 8 -20 18
-31 16 -19 16 -19 -5 -7 -18 11 -24 12 -37 1 -22 -18 -20 -38 4 -51 20 -11 30
3 10 15 -14 9 -12 25 3 25 7 0 29 -9 50 -20 20 -11 43 -20 49 -20 8 0 13 -13
14 -30 l1 -30 -33 37 c-28 31 -35 35 -48 24 -9 -8 -16 -20 -16 -27 0 -22 -24
-16 -35 9 -6 12 -18 21 -28 21 -19 -2 -23 11 -6 21 7 5 5 13 -7 26 -9 10 -14
25 -11 34 8 20 37 20 37 -1 0 -8 -4 -13 -9 -9 -5 3 -12 1 -15 -4 -9 -14 20
-21 33 -8 6 6 11 19 11 30 0 10 5 15 10 12 6 -3 10 -11 10 -17z m121 -1 c23 4
28 2 24 -8 -12 -31 -41 -39 -76 -21 -45 23 -51 44 -9 32 18 -5 45 -6 61 -3z
m-54 -134 c0 -8 -5 -9 -19 -2 -18 10 -23 21 -12 32 8 8 31 -14 31 -30z m73 22
c0 -8 -4 -15 -10 -15 -5 0 -10 7 -10 15 0 8 5 15 10 15 6 0 10 -7 10 -15z m71
-8 c-13 -13 -26 -3 -16 12 3 6 11 8 17 5 6 -4 6 -10 -1 -17z m-52 -88 c-29
-23 -48 -23 -97 -4 -60 24 -51 44 18 38 32 -3 65 -1 76 5 29 17 31 -17 3 -39z
m41 -9 c0 -5 -8 -10 -17 -10 -15 0 -16 2 -3 10 19 12 20 12 20 0z m-163 -6
c-3 -3 -12 -4 -19 -1 -8 3 -5 6 6 6 11 1 17 -2 13 -5z m236 -43 c4 -1 7 -5 7
-11 0 -6 -27 -10 -60 -10 -41 0 -60 4 -60 13 0 10 59 15 113 8z m-223 -14 c0
-18 -112 -17 -117 1 -4 9 12 12 56 12 44 0 61 -4 61 -13z m20 -51 c0 -7 -7
-19 -15 -26 -13 -11 -15 -8 -15 14 0 16 5 26 15 26 8 0 15 -6 15 -14z m91 1
c-1 -4 -1 -17 -1 -29 -1 -23 -1 -23 -14 2 -8 14 -12 28 -9 33 6 9 25 5 24 -6z"/>
<path d="M656 561 c-15 -6 -16 -10 -7 -15 8 -5 20 -2 29 8 17 17 9 19 -22 7z"/>
<path d="M760 450 c0 -5 5 -10 10 -10 6 0 10 5 10 10 0 6 -4 10 -10 10 -5 0
-10 -4 -10 -10z"/>
</g>
</svg>
